<svg xmlns="http://www.w3.org/2000/svg" width="1600" height="1000" viewBox="0 0 1600 1000" role="img" aria-labelledby="title desc">
  <title id="title">方案 A：数据底座总控台</title>
  <desc id="desc">股票数据库管理系统桌面后台总控台布局方案，覆盖股票库、日线行情、数据源、同步任务、数据质量和数据集目录。</desc>
  <defs>
    <style>
      .bg { fill: #f4f7fb; }
      .sider { fill: #0f1b2d; }
      .header { fill: #ffffff; }
      .card { fill: #ffffff; stroke: #dde6f2; stroke-width: 1; }
      .soft { fill: #f8fbff; stroke: #e5edf7; stroke-width: 1; }
      .blue { fill: #e8f2ff; stroke: #b8d8ff; }
      .green { fill: #eaf8f0; stroke: #bfe8cf; }
      .amber { fill: #fff7e6; stroke: #ffe0a3; }
      .red { fill: #fff0f0; stroke: #ffc4c4; }
      .ink { fill: #172033; font-family: "Microsoft YaHei", "Noto Sans SC", "Segoe UI", sans-serif; }
      .muted { fill: #667085; font-family: "Microsoft YaHei", "Noto Sans SC", "Segoe UI", sans-serif; }
      .white { fill: #ffffff; font-family: "Microsoft YaHei", "Noto Sans SC", "Segoe UI", sans-serif; }
      .label { font-size: 18px; font-weight: 700; }
      .small { font-size: 13px; }
      .tiny { font-size: 11px; }
      .num { font-size: 26px; font-weight: 800; }
      .nav { fill: #cbd5e1; font-size: 14px; }
      .navActiveBg { fill: #1f6feb; }
      .line { stroke: #d7e1ee; stroke-width: 1; }
      .axis { stroke: #d9e4f1; stroke-width: 1; }
      .up { stroke: #d92d20; fill: none; stroke-width: 3; }
      .bar { fill: #9ec5ff; opacity: .55; }
      .tag { font-size: 12px; font-weight: 700; }
    </style>
    <filter id="shadow" x="-20%" y="-20%" width="140%" height="140%">
      <feDropShadow dx="0" dy="12" stdDeviation="16" flood-color="#122033" flood-opacity=".08"/>
    </filter>
  </defs>

  <rect class="bg" width="1600" height="1000"/>
  <rect class="sider" x="0" y="0" width="232" height="1000"/>
  <rect x="24" y="24" width="40" height="40" rx="8" fill="#2b7fff"/>
  <text class="white" x="44" y="50" text-anchor="middle" font-size="20" font-weight="800">Q</text>
  <text class="white" x="78" y="42" font-size="18" font-weight="800">Quant</text>
  <text class="nav" x="78" y="61">数据系统</text>

  <text class="nav" x="28" y="118">数据系统</text>
  <rect class="navActiveBg" x="18" y="138" width="196" height="42" rx="7"/>
  <text class="white" x="48" y="164" font-size="14" font-weight="700">总控台</text>
  <text class="nav" x="48" y="218">股票库</text>
  <text class="nav" x="48" y="266">数据源</text>
  <text class="nav" x="48" y="314">数据集目录</text>
  <text class="nav" x="48" y="362">交易日历</text>
  <text class="nav" x="48" y="410">日线行情</text>
  <text class="nav" x="48" y="458">数据质量</text>
  <text class="nav" x="48" y="506">同步任务</text>
  <rect x="24" y="882" width="184" height="74" rx="10" fill="#15243a" stroke="#243955"/>
  <text class="white" x="42" y="912" font-size="13" font-weight="700">第一阶段范围</text>
  <text class="nav" x="42" y="938">桌面管理后台 / A 股</text>

  <rect class="header" x="232" y="0" width="1368" height="72"/>
  <text class="muted" x="268" y="28">Quant 数据工作台 / 方案 A</text>
  <text class="ink" x="268" y="55" font-size="23" font-weight="800">数据底座总控台</text>
  <rect x="1290" y="22" width="128" height="32" rx="6" fill="#f0f6ff" stroke="#cfe2ff"/>
  <text class="ink" x="1354" y="43" text-anchor="middle" font-size="13" font-weight="700">中国 A 股</text>
  <rect x="1430" y="22" width="126" height="32" rx="6" fill="#edf8f2" stroke="#bfe8cf"/>
  <text class="ink" x="1493" y="43" text-anchor="middle" font-size="13" font-weight="700">健康运行</text>

  <g filter="url(#shadow)">
    <rect class="card" x="260" y="102" width="244" height="116" rx="8"/>
    <text class="muted" x="282" y="132">股票总数</text>
    <text class="ink num" x="282" y="173">5,362</text>
    <text class="muted small" x="282" y="197">来源：AKShare / BaoStock</text>

    <rect class="card" x="526" y="102" width="244" height="116" rx="8"/>
    <text class="muted" x="548" y="132">最新交易日</text>
    <text class="ink num" x="548" y="173">2026-06-05</text>
    <text class="muted small" x="548" y="197">交易日历已校验</text>

    <rect class="card" x="792" y="102" width="244" height="116" rx="8"/>
    <text class="muted" x="814" y="132">日线记录</text>
    <text class="ink num" x="814" y="173">1.82M</text>
    <text class="muted small" x="814" y="197">Silver 层可查询</text>

    <rect class="card" x="1058" y="102" width="244" height="116" rx="8"/>
    <text class="muted" x="1080" y="132">质量通过率</text>
    <text class="ink num" x="1080" y="173">98.7%</text>
    <text class="muted small" x="1080" y="197">3 条警告待确认</text>

    <rect class="card" x="1324" y="102" width="232" height="116" rx="8"/>
    <text class="muted" x="1346" y="132">运行中任务</text>
    <text class="ink num" x="1346" y="173">2</text>
    <text class="muted small" x="1346" y="197">队列无阻塞</text>
  </g>

  <rect class="card" x="260" y="248" width="760" height="396" rx="8"/>
  <text class="ink label" x="286" y="284">股票库与日线行情联动区</text>
  <text class="muted small" x="286" y="307">高频查询入口：股票筛选、日线预览、行情覆盖率</text>
  <rect class="soft" x="286" y="330" width="708" height="48" rx="7"/>
  <rect x="308" y="343" width="132" height="22" rx="5" fill="#ffffff" stroke="#d9e3f0"/>
  <text class="muted tiny" x="374" y="358" text-anchor="middle">代码 / 名称</text>
  <rect x="454" y="343" width="118" height="22" rx="5" fill="#ffffff" stroke="#d9e3f0"/>
  <text class="muted tiny" x="513" y="358" text-anchor="middle">市场</text>
  <rect x="586" y="343" width="118" height="22" rx="5" fill="#ffffff" stroke="#d9e3f0"/>
  <text class="muted tiny" x="645" y="358" text-anchor="middle">行业</text>
  <rect x="848" y="342" width="110" height="24" rx="5" fill="#1f6feb"/>
  <text class="white tag" x="903" y="358" text-anchor="middle">查询</text>

  <line class="line" x1="286" y1="410" x2="994" y2="410"/>
  <text class="muted small" x="308" y="434">代码</text>
  <text class="muted small" x="432" y="434">名称</text>
  <text class="muted small" x="570" y="434">交易所</text>
  <text class="muted small" x="704" y="434">最新收盘</text>
  <text class="muted small" x="850" y="434">质量</text>
  <g class="small">
    <text class="ink" x="308" y="472" font-weight="700">600519</text>
    <text class="ink" x="432" y="472">贵州茅台</text>
    <text class="muted" x="570" y="472">上交所</text>
    <text class="ink" x="704" y="472">1,426.20</text>
    <rect x="850" y="455" width="56" height="22" rx="11" fill="#eaf8f0"/><text x="878" y="470" text-anchor="middle" fill="#1f8f59">通过</text>
    <line class="line" x1="286" y1="493" x2="994" y2="493"/>
    <text class="ink" x="308" y="528" font-weight="700">000001</text>
    <text class="ink" x="432" y="528">平安银行</text>
    <text class="muted" x="570" y="528">深交所</text>
    <text class="ink" x="704" y="528">11.24</text>
    <rect x="850" y="511" width="56" height="22" rx="11" fill="#fff7e6"/><text x="878" y="526" text-anchor="middle" fill="#ad6800">警告</text>
    <line class="line" x1="286" y1="549" x2="994" y2="549"/>
    <text class="ink" x="308" y="584" font-weight="700">300750</text>
    <text class="ink" x="432" y="584">宁德时代</text>
    <text class="muted" x="570" y="584">深交所</text>
    <text class="ink" x="704" y="584">188.42</text>
    <rect x="850" y="567" width="56" height="22" rx="11" fill="#eaf8f0"/><text x="878" y="582" text-anchor="middle" fill="#1f8f59">通过</text>
  </g>

  <rect class="soft" x="260" y="668" width="760" height="270" rx="8"/>
  <text class="ink label" x="286" y="704">日线走势预览</text>
  <text class="muted small" x="286" y="727">600519 / 中国 A 股 / 最近 20 个交易日</text>
  <g transform="translate(300 760)">
    <line class="axis" x1="0" y1="0" x2="650" y2="0"/>
    <line class="axis" x1="0" y1="56" x2="650" y2="56"/>
    <line class="axis" x1="0" y1="112" x2="650" y2="112"/>
    <path class="up" d="M0 100 L45 86 L90 91 L135 76 L180 72 L225 80 L270 58 L315 48 L360 54 L405 37 L450 41 L495 27 L540 35 L585 18 L650 24"/>
    <rect class="bar" x="8" y="124" width="18" height="32"/><rect class="bar" x="53" y="130" width="18" height="26"/><rect class="bar" x="98" y="116" width="18" height="40"/><rect class="bar" x="143" y="122" width="18" height="34"/><rect class="bar" x="188" y="106" width="18" height="50"/><rect class="bar" x="233" y="132" width="18" height="24"/><rect class="bar" x="278" y="101" width="18" height="55"/><rect class="bar" x="323" y="114" width="18" height="42"/><rect class="bar" x="368" y="126" width="18" height="30"/><rect class="bar" x="413" y="96" width="18" height="60"/><rect class="bar" x="458" y="120" width="18" height="36"/><rect class="bar" x="503" y="108" width="18" height="48"/><rect class="bar" x="548" y="118" width="18" height="38"/><rect class="bar" x="593" y="91" width="18" height="65"/>
  </g>

  <rect class="card" x="1048" y="248" width="508" height="292" rx="8"/>
  <text class="ink label" x="1074" y="284">数据源健康与能力</text>
  <g transform="translate(1074 316)">
    <rect class="blue" width="456" height="56" rx="8"/>
    <text class="ink" x="18" y="24" font-weight="800">AKShare</text>
    <text class="muted small" x="18" y="43">股票列表 / 日线行情</text>
    <rect x="356" y="16" width="78" height="24" rx="12" fill="#eaf8f0"/><text x="395" y="33" text-anchor="middle" fill="#1f8f59" font-size="12" font-weight="700">健康</text>
    <rect class="green" y="76" width="456" height="56" rx="8"/>
    <text class="ink" x="18" y="100" font-weight="800">BaoStock</text>
    <text class="muted small" x="18" y="119">股票列表 / 日线行情 / 交易日历</text>
    <rect x="356" y="92" width="78" height="24" rx="12" fill="#eaf8f0"/><text x="395" y="109" text-anchor="middle" fill="#1f8f59" font-size="12" font-weight="700">已取样</text>
    <rect class="amber" y="152" width="456" height="56" rx="8"/>
    <text class="ink" x="18" y="176" font-weight="800">Tushare</text>
    <text class="muted small" x="18" y="195">需配置 Token / 可选增强</text>
    <rect x="356" y="168" width="78" height="24" rx="12" fill="#fff4d6"/><text x="395" y="185" text-anchor="middle" fill="#ad6800" font-size="12" font-weight="700">未启用</text>
  </g>

  <rect class="card" x="1048" y="568" width="246" height="370" rx="8"/>
  <text class="ink label" x="1074" y="604">同步任务</text>
  <circle cx="1084" cy="642" r="5" fill="#1f6feb"/><text class="ink small" x="1104" y="647">日线行情 600519</text><text class="muted tiny" x="1104" y="666">运行中 / BaoStock / 62%</text>
  <line x1="1084" y1="650" x2="1084" y2="705" stroke="#c8d6e8"/>
  <circle cx="1084" cy="718" r="5" fill="#1f8f59"/><text class="ink small" x="1104" y="723">股票列表 A 股</text><text class="muted tiny" x="1104" y="742">成功 / AKShare / 5,362</text>
  <line x1="1084" y1="726" x2="1084" y2="781" stroke="#c8d6e8"/>
  <circle cx="1084" cy="794" r="5" fill="#ad6800"/><text class="ink small" x="1104" y="799">交易日历 A 股</text><text class="muted tiny" x="1104" y="818">警告 / 缺失 1 天</text>
  <rect x="1074" y="858" width="188" height="36" rx="6" fill="#1f6feb"/>
  <text class="white tag" x="1168" y="881" text-anchor="middle">查看任务队列</text>

  <rect class="card" x="1310" y="568" width="246" height="370" rx="8"/>
  <text class="ink label" x="1336" y="604">质量与目录</text>
  <rect class="green" x="1336" y="632" width="190" height="54" rx="8"/>
  <text class="ink small" x="1354" y="654" font-weight="800">Silver / 日线行情</text>
  <text class="muted tiny" x="1354" y="673">98.7% 通过 / DuckDB 可查</text>
  <rect class="amber" x="1336" y="706" width="190" height="54" rx="8"/>
  <text class="ink small" x="1354" y="728" font-weight="800">交易日历</text>
  <text class="muted tiny" x="1354" y="747">1 条缺失警告</text>
  <rect class="blue" x="1336" y="780" width="190" height="54" rx="8"/>
  <text class="ink small" x="1354" y="802" font-weight="800">股票库</text>
  <text class="muted tiny" x="1354" y="821">PostgreSQL 元数据</text>
  <rect x="1336" y="858" width="160" height="36" rx="6" fill="#172033"/>
  <text class="white tag" x="1416" y="881" text-anchor="middle">打开数据目录</text>
</svg>
